


Format                           : AVI
Format/Info                      : Audio Video Interleave
File size                        : 938 MiB
Duration                         : 1h 44mn
Overall bit rate                 : 1 260 Kbps
Writing library                  : VirtualDub build 32839/release

Video
ID                               : 0
Format                           : MPEG-4 Visual
Format profile                   : Advanced Simple@L5
Format settings, BVOP            : Yes
Format settings, QPel            : No
Format settings, GMC             : No warppoints
Format settings, Matrix          : Custom
Codec ID                         : XVID
Codec ID/Hint                    : XviD
Duration                         : 1h 44mn
Bit rate                         : 1 122 Kbps
Width                            : 672 pixels
Height                           : 284 pixels
Display aspect ratio             : 2.35:1
Frame rate                       : 25.000 fps
Color space                      : YUV
Chroma subsampling               : 4:2:0
Bit depth                        : 8 bits
Scan type                        : Progressive
Bits/(Pixel*Frame)               : 0.235
Stream size                      : 835 MiB (89%)
Writing library                  : XviD 1.2.1 (UTC 2008-12-04)

Audio
ID                               : 1
Format                           : MPEG Audio
Format version                   : Version 1
Format profile                   : Layer 3
Mode                             : Joint stereo
Mode extension                   : MS Stereo
Codec ID                         : 55
Codec ID/Hint                    : MP3
Duration                         : 1h 44mn
Bit rate mode                    : Constant
Bit rate                         : 128 Kbps
Channel(s)                       : 2 channels
Sampling rate                    : 44.1 KHz
Stream size                      : 95.3 MiB (10%)
Alignment                        : Split accross interleaves
Interleave, duration             : 40 ms (1.00 video frame)
Interleave, preload duration     : 500 ms
Writing library                  : LAME3.98r
Encoding settings                : -m j -V 4 -q 2 -lowpass 17 -b 128



 
http://www.imdb.com/title/tt0978764/






Storyline

A young girl (Baby Doll) is locked away in a mental asylum by her abusive stepfather where she will undergo a lobotomy in five days time. Faced with unimaginable odds, she retreats to a fantastical world in her imagination where she and four other female inmates at the asylum, plot to escape the facility. The lines between reality and fantasy blur as Baby Doll and her four companions, as well as a mysterious guide, fight to retrieve the five items they need that will allow them to break free from their captors before it's too late... 







 
http://img691.imageshack.us/img691/5789/vlcsnap2011040805h23m07.png 
http://img402.imageshack.us/img402/3668/vlcsnap2011040805h24m24.png 
http://img859.imageshack.us/img859/4409/vlcsnap2011040805h23m52.png



SOURCES:



VIDEO: ADDiCTED ......Thanks

AUDIO: IMAGiNE ......... Thanks

Well a V2 while its quiet ....New vid is definetly better than the last one and all credit to ADDiCTED n IMAGiNE for bringing the goods once again ......Slight smoother,slight increase in saturation ,levels filter ...Anyway just kept the file size down abit enjoy of you still want it ...........





Greetz to Imagine ,Flawl3ss,DiLLoN,BDK,NOiR,TOXiCiNK,THC,Ez,Rx,Boobyblue